<svg xmlns="http://www.w3.org/2000/svg" version="1.1" width="1920" height="1080" preserveAspectRatio="none"
     viewBox="0 0 1920 1080">
    <g mask="url(&quot;#SvgjsMask1084&quot;)" fill="none">
        <rect width="1920" height="1080" x="0" y="0" fill="rgba(0, 41, 87, 1)"></rect>
        <path d="M99.55 89.32L164.51 126.82L164.51 201.82L99.55 239.32L34.6 201.82L34.6 126.82zM34.6 426.82L99.55 464.32L99.55 539.32L34.6 576.82L-30.35 539.32L-30.35 464.32zM34.6 651.82L99.55 689.32L99.55 764.32L34.6 801.82L-30.35 764.32L-30.35 689.32zM99.55 764.32L164.51 801.82L164.51 876.82L99.55 914.32L34.6 876.82L34.6 801.82zM229.46 89.32L294.42 126.82L294.42 201.82L229.46 239.32L164.51 201.82L164.51 126.82zM164.51 426.82L229.46 464.32L229.46 539.32L164.51 576.82L99.55 539.32L99.55 464.32zM229.46 764.32L294.42 801.82L294.42 876.82L229.46 914.32L164.51 876.82L164.51 801.82zM359.37 89.32L424.32 126.82L424.32 201.82L359.37 239.32L294.42 201.82L294.42 126.82zM294.42 201.82L359.37 239.32L359.37 314.32L294.42 351.82L229.46 314.32L229.46 239.32zM359.37 764.32L424.32 801.82L424.32 876.82L359.37 914.32L294.42 876.82L294.42 801.82zM359.37 989.32L424.32 1026.82L424.32 1101.82L359.37 1139.32L294.42 1101.82L294.42 1026.82zM294.42 1101.82L359.37 1139.32L359.37 1214.32L294.42 1251.82L229.46 1214.32L229.46 1139.32zM424.32 -23.18L489.28 14.32L489.28 89.32L424.32 126.82L359.37 89.32L359.37 14.32zM424.32 201.82L489.28 239.32L489.28 314.32L424.32 351.82L359.37 314.32L359.37 239.32zM489.28 314.32L554.23 351.82L554.23 426.82L489.28 464.32L424.32 426.82L424.32 351.82zM424.32 426.82L489.28 464.32L489.28 539.32L424.32 576.82L359.37 539.32L359.37 464.32zM489.28 539.32L554.23 576.82L554.23 651.82L489.28 689.32L424.32 651.82L424.32 576.82zM424.32 876.82L489.28 914.32L489.28 989.32L424.32 1026.82L359.37 989.32L359.37 914.32zM489.28 989.32L554.23 1026.82L554.23 1101.82L489.28 1139.32L424.32 1101.82L424.32 1026.82zM554.23 -23.18L619.18 14.32L619.18 89.32L554.23 126.82L489.28 89.32L489.28 14.32zM619.18 89.32L684.14 126.82L684.14 201.82L619.18 239.32L554.23 201.82L554.23 126.82zM619.18 764.32L684.14 801.82L684.14 876.82L619.18 914.32L554.23 876.82L554.23 801.82zM554.23 876.82L619.18 914.32L619.18 989.32L554.23 1026.82L489.28 989.32L489.28 914.32zM684.14 -23.18L749.09 14.32L749.09 89.32L684.14 126.82L619.18 89.32L619.18 14.32zM684.14 201.82L749.09 239.32L749.09 314.32L684.14 351.82L619.18 314.32L619.18 239.32zM684.14 426.82L749.09 464.32L749.09 539.32L684.14 576.82L619.18 539.32L619.18 464.32zM684.14 876.82L749.09 914.32L749.09 989.32L684.14 1026.82L619.18 989.32L619.18 914.32zM814.04 -23.18L879 14.32L879 89.32L814.04 126.82L749.09 89.32L749.09 14.32zM879 89.32L943.95 126.82L943.95 201.82L879 239.32L814.04 201.82L814.04 126.82zM814.04 201.82L879 239.32L879 314.32L814.04 351.82L749.09 314.32L749.09 239.32zM879 314.32L943.95 351.82L943.95 426.82L879 464.32L814.04 426.82L814.04 351.82zM814.04 1101.82L879 1139.32L879 1214.32L814.04 1251.82L749.09 1214.32L749.09 1139.32zM1008.91 89.32L1073.86 126.82L1073.86 201.82L1008.91 239.32L943.95 201.82L943.95 126.82zM943.95 201.82L1008.91 239.32L1008.91 314.32L943.95 351.82L879 314.32L879 239.32zM1008.91 314.32L1073.86 351.82L1073.86 426.82L1008.91 464.32L943.95 426.82L943.95 351.82zM1008.91 764.32L1073.86 801.82L1073.86 876.82L1008.91 914.32L943.95 876.82L943.95 801.82zM943.95 876.82L1008.91 914.32L1008.91 989.32L943.95 1026.82L879 989.32L879 914.32zM1008.91 989.32L1073.86 1026.82L1073.86 1101.82L1008.91 1139.32L943.95 1101.82L943.95 1026.82zM943.95 1101.82L1008.91 1139.32L1008.91 1214.32L943.95 1251.82L879 1214.32L879 1139.32zM1138.81 89.32L1203.77 126.82L1203.77 201.82L1138.81 239.32L1073.86 201.82L1073.86 126.82zM1073.86 201.82L1138.81 239.32L1138.81 314.32L1073.86 351.82L1008.91 314.32L1008.91 239.32zM1073.86 426.82L1138.81 464.32L1138.81 539.32L1073.86 576.82L1008.91 539.32L1008.91 464.32zM1073.86 876.82L1138.81 914.32L1138.81 989.32L1073.86 1026.82L1008.91 989.32L1008.91 914.32zM1203.77 -23.18L1268.72 14.32L1268.72 89.32L1203.77 126.82L1138.81 89.32L1138.81 14.32zM1203.77 201.82L1268.72 239.32L1268.72 314.32L1203.77 351.82L1138.81 314.32L1138.81 239.32zM1268.72 314.32L1333.67 351.82L1333.67 426.82L1268.72 464.32L1203.77 426.82L1203.77 351.82zM1203.77 426.82L1268.72 464.32L1268.72 539.32L1203.77 576.82L1138.81 539.32L1138.81 464.32zM1268.72 539.32L1333.67 576.82L1333.67 651.82L1268.72 689.32L1203.77 651.82L1203.77 576.82zM1203.77 651.82L1268.72 689.32L1268.72 764.32L1203.77 801.82L1138.81 764.32L1138.81 689.32zM1268.72 764.32L1333.67 801.82L1333.67 876.82L1268.72 914.32L1203.77 876.82L1203.77 801.82zM1203.77 876.82L1268.72 914.32L1268.72 989.32L1203.77 1026.82L1138.81 989.32L1138.81 914.32zM1268.72 989.32L1333.67 1026.82L1333.67 1101.82L1268.72 1139.32L1203.77 1101.82L1203.77 1026.82zM1333.67 -23.18L1398.63 14.32L1398.63 89.32L1333.67 126.82L1268.72 89.32L1268.72 14.32zM1398.63 89.32L1463.58 126.82L1463.58 201.82L1398.63 239.32L1333.67 201.82L1333.67 126.82zM1333.67 426.82L1398.63 464.32L1398.63 539.32L1333.67 576.82L1268.72 539.32L1268.72 464.32zM1463.58 201.82L1528.54 239.32L1528.54 314.32L1463.58 351.82L1398.63 314.32L1398.63 239.32zM1528.54 314.32L1593.49 351.82L1593.49 426.82L1528.54 464.32L1463.58 426.82L1463.58 351.82zM1528.54 539.32L1593.49 576.82L1593.49 651.82L1528.54 689.32L1463.58 651.82L1463.58 576.82zM1528.54 764.32L1593.49 801.82L1593.49 876.82L1528.54 914.32L1463.58 876.82L1463.58 801.82zM1528.54 989.32L1593.49 1026.82L1593.49 1101.82L1528.54 1139.32L1463.58 1101.82L1463.58 1026.82zM1658.44 314.32L1723.4 351.82L1723.4 426.82L1658.44 464.32L1593.49 426.82L1593.49 351.82zM1593.49 426.82L1658.44 464.32L1658.44 539.32L1593.49 576.82L1528.54 539.32L1528.54 464.32zM1593.49 651.82L1658.44 689.32L1658.44 764.32L1593.49 801.82L1528.54 764.32L1528.54 689.32zM1593.49 1101.82L1658.44 1139.32L1658.44 1214.32L1593.49 1251.82L1528.54 1214.32L1528.54 1139.32zM1723.4 201.82L1788.35 239.32L1788.35 314.32L1723.4 351.82L1658.44 314.32L1658.44 239.32zM1788.35 314.32L1853.3 351.82L1853.3 426.82L1788.35 464.32L1723.4 426.82L1723.4 351.82zM1723.4 426.82L1788.35 464.32L1788.35 539.32L1723.4 576.82L1658.44 539.32L1658.44 464.32zM1788.35 539.32L1853.3 576.82L1853.3 651.82L1788.35 689.32L1723.4 651.82L1723.4 576.82zM1788.35 764.32L1853.3 801.82L1853.3 876.82L1788.35 914.32L1723.4 876.82L1723.4 801.82zM1723.4 876.82L1788.35 914.32L1788.35 989.32L1723.4 1026.82L1658.44 989.32L1658.44 914.32zM1853.3 201.82L1918.26 239.32L1918.26 314.32L1853.3 351.82L1788.35 314.32L1788.35 239.32zM1918.26 314.32L1983.21 351.82L1983.21 426.82L1918.26 464.32L1853.3 426.82L1853.3 351.82zM1853.3 426.82L1918.26 464.32L1918.26 539.32L1853.3 576.82L1788.35 539.32L1788.35 464.32zM1918.26 539.32L1983.21 576.82L1983.21 651.82L1918.26 689.32L1853.3 651.82L1853.3 576.82zM1853.3 876.82L1918.26 914.32L1918.26 989.32L1853.3 1026.82L1788.35 989.32L1788.35 914.32zM1918.26 989.32L1983.21 1026.82L1983.21 1101.82L1918.26 1139.32L1853.3 1101.82L1853.3 1026.82z"
              stroke="#03305d" stroke-width="2"></path>
        <path d="M92.05 89.32 a7.5 7.5 0 1 0 15 0 a7.5 7.5 0 1 0 -15 0zM157.01 126.82 a7.5 7.5 0 1 0 15 0 a7.5 7.5 0 1 0 -15 0zM157.01 201.82 a7.5 7.5 0 1 0 15 0 a7.5 7.5 0 1 0 -15 0zM92.05 239.32 a7.5 7.5 0 1 0 15 0 a7.5 7.5 0 1 0 -15 0zM27.1 201.82 a7.5 7.5 0 1 0 15 0 a7.5 7.5 0 1 0 -15 0zM27.1 126.82 a7.5 7.5 0 1 0 15 0 a7.5 7.5 0 1 0 -15 0zM27.1 426.82 a7.5 7.5 0 1 0 15 0 a7.5 7.5 0 1 0 -15 0zM92.05 464.32 a7.5 7.5 0 1 0 15 0 a7.5 7.5 0 1 0 -15 0zM92.05 539.32 a7.5 7.5 0 1 0 15 0 a7.5 7.5 0 1 0 -15 0zM27.1 576.82 a7.5 7.5 0 1 0 15 0 a7.5 7.5 0 1 0 -15 0zM-37.85 539.32 a7.5 7.5 0 1 0 15 0 a7.5 7.5 0 1 0 -15 0zM-37.85 464.32 a7.5 7.5 0 1 0 15 0 a7.5 7.5 0 1 0 -15 0zM27.1 651.82 a7.5 7.5 0 1 0 15 0 a7.5 7.5 0 1 0 -15 0zM92.05 689.32 a7.5 7.5 0 1 0 15 0 a7.5 7.5 0 1 0 -15 0zM92.05 764.32 a7.5 7.5 0 1 0 15 0 a7.5 7.5 0 1 0 -15 0zM27.1 801.82 a7.5 7.5 0 1 0 15 0 a7.5 7.5 0 1 0 -15 0zM-37.85 764.32 a7.5 7.5 0 1 0 15 0 a7.5 7.5 0 1 0 -15 0zM-37.85 689.32 a7.5 7.5 0 1 0 15 0 a7.5 7.5 0 1 0 -15 0zM157.01 801.82 a7.5 7.5 0 1 0 15 0 a7.5 7.5 0 1 0 -15 0zM157.01 876.82 a7.5 7.5 0 1 0 15 0 a7.5 7.5 0 1 0 -15 0zM92.05 914.32 a7.5 7.5 0 1 0 15 0 a7.5 7.5 0 1 0 -15 0zM27.1 876.82 a7.5 7.5 0 1 0 15 0 a7.5 7.5 0 1 0 -15 0zM221.96 89.32 a7.5 7.5 0 1 0 15 0 a7.5 7.5 0 1 0 -15 0zM286.92 126.82 a7.5 7.5 0 1 0 15 0 a7.5 7.5 0 1 0 -15 0zM286.92 201.82 a7.5 7.5 0 1 0 15 0 a7.5 7.5 0 1 0 -15 0zM221.96 239.32 a7.5 7.5 0 1 0 15 0 a7.5 7.5 0 1 0 -15 0zM157.01 426.82 a7.5 7.5 0 1 0 15 0 a7.5 7.5 0 1 0 -15 0zM221.96 464.32 a7.5 7.5 0 1 0 15 0 a7.5 7.5 0 1 0 -15 0zM221.96 539.32 a7.5 7.5 0 1 0 15 0 a7.5 7.5 0 1 0 -15 0zM157.01 576.82 a7.5 7.5 0 1 0 15 0 a7.5 7.5 0 1 0 -15 0zM221.96 764.32 a7.5 7.5 0 1 0 15 0 a7.5 7.5 0 1 0 -15 0zM286.92 801.82 a7.5 7.5 0 1 0 15 0 a7.5 7.5 0 1 0 -15 0zM286.92 876.82 a7.5 7.5 0 1 0 15 0 a7.5 7.5 0 1 0 -15 0zM221.96 914.32 a7.5 7.5 0 1 0 15 0 a7.5 7.5 0 1 0 -15 0zM351.87 89.32 a7.5 7.5 0 1 0 15 0 a7.5 7.5 0 1 0 -15 0zM416.82 126.82 a7.5 7.5 0 1 0 15 0 a7.5 7.5 0 1 0 -15 0zM416.82 201.82 a7.5 7.5 0 1 0 15 0 a7.5 7.5 0 1 0 -15 0zM351.87 239.32 a7.5 7.5 0 1 0 15 0 a7.5 7.5 0 1 0 -15 0zM351.87 314.32 a7.5 7.5 0 1 0 15 0 a7.5 7.5 0 1 0 -15 0zM286.92 351.82 a7.5 7.5 0 1 0 15 0 a7.5 7.5 0 1 0 -15 0zM221.96 314.32 a7.5 7.5 0 1 0 15 0 a7.5 7.5 0 1 0 -15 0zM351.87 764.32 a7.5 7.5 0 1 0 15 0 a7.5 7.5 0 1 0 -15 0zM416.82 801.82 a7.5 7.5 0 1 0 15 0 a7.5 7.5 0 1 0 -15 0zM416.82 876.82 a7.5 7.5 0 1 0 15 0 a7.5 7.5 0 1 0 -15 0zM351.87 914.32 a7.5 7.5 0 1 0 15 0 a7.5 7.5 0 1 0 -15 0zM351.87 989.32 a7.5 7.5 0 1 0 15 0 a7.5 7.5 0 1 0 -15 0zM416.82 1026.82 a7.5 7.5 0 1 0 15 0 a7.5 7.5 0 1 0 -15 0zM416.82 1101.82 a7.5 7.5 0 1 0 15 0 a7.5 7.5 0 1 0 -15 0zM351.87 1139.32 a7.5 7.5 0 1 0 15 0 a7.5 7.5 0 1 0 -15 0zM286.92 1101.82 a7.5 7.5 0 1 0 15 0 a7.5 7.5 0 1 0 -15 0zM286.92 1026.82 a7.5 7.5 0 1 0 15 0 a7.5 7.5 0 1 0 -15 0zM351.87 1214.32 a7.5 7.5 0 1 0 15 0 a7.5 7.5 0 1 0 -15 0zM286.92 1251.82 a7.5 7.5 0 1 0 15 0 a7.5 7.5 0 1 0 -15 0zM221.96 1214.32 a7.5 7.5 0 1 0 15 0 a7.5 7.5 0 1 0 -15 0zM221.96 1139.32 a7.5 7.5 0 1 0 15 0 a7.5 7.5 0 1 0 -15 0zM416.82 -23.18 a7.5 7.5 0 1 0 15 0 a7.5 7.5 0 1 0 -15 0zM481.78 14.32 a7.5 7.5 0 1 0 15 0 a7.5 7.5 0 1 0 -15 0zM481.78 89.32 a7.5 7.5 0 1 0 15 0 a7.5 7.5 0 1 0 -15 0zM351.87 14.32 a7.5 7.5 0 1 0 15 0 a7.5 7.5 0 1 0 -15 0zM481.78 239.32 a7.5 7.5 0 1 0 15 0 a7.5 7.5 0 1 0 -15 0zM481.78 314.32 a7.5 7.5 0 1 0 15 0 a7.5 7.5 0 1 0 -15 0zM416.82 351.82 a7.5 7.5 0 1 0 15 0 a7.5 7.5 0 1 0 -15 0zM546.73 351.82 a7.5 7.5 0 1 0 15 0 a7.5 7.5 0 1 0 -15 0zM546.73 426.82 a7.5 7.5 0 1 0 15 0 a7.5 7.5 0 1 0 -15 0zM481.78 464.32 a7.5 7.5 0 1 0 15 0 a7.5 7.5 0 1 0 -15 0zM416.82 426.82 a7.5 7.5 0 1 0 15 0 a7.5 7.5 0 1 0 -15 0zM481.78 539.32 a7.5 7.5 0 1 0 15 0 a7.5 7.5 0 1 0 -15 0zM416.82 576.82 a7.5 7.5 0 1 0 15 0 a7.5 7.5 0 1 0 -15 0zM351.87 539.32 a7.5 7.5 0 1 0 15 0 a7.5 7.5 0 1 0 -15 0zM351.87 464.32 a7.5 7.5 0 1 0 15 0 a7.5 7.5 0 1 0 -15 0zM546.73 576.82 a7.5 7.5 0 1 0 15 0 a7.5 7.5 0 1 0 -15 0zM546.73 651.82 a7.5 7.5 0 1 0 15 0 a7.5 7.5 0 1 0 -15 0zM481.78 689.32 a7.5 7.5 0 1 0 15 0 a7.5 7.5 0 1 0 -15 0zM416.82 651.82 a7.5 7.5 0 1 0 15 0 a7.5 7.5 0 1 0 -15 0zM481.78 914.32 a7.5 7.5 0 1 0 15 0 a7.5 7.5 0 1 0 -15 0zM481.78 989.32 a7.5 7.5 0 1 0 15 0 a7.5 7.5 0 1 0 -15 0zM546.73 1026.82 a7.5 7.5 0 1 0 15 0 a7.5 7.5 0 1 0 -15 0zM546.73 1101.82 a7.5 7.5 0 1 0 15 0 a7.5 7.5 0 1 0 -15 0zM481.78 1139.32 a7.5 7.5 0 1 0 15 0 a7.5 7.5 0 1 0 -15 0zM546.73 -23.18 a7.5 7.5 0 1 0 15 0 a7.5 7.5 0 1 0 -15 0zM611.68 14.32 a7.5 7.5 0 1 0 15 0 a7.5 7.5 0 1 0 -15 0zM611.68 89.32 a7.5 7.5 0 1 0 15 0 a7.5 7.5 0 1 0 -15 0zM546.73 126.82 a7.5 7.5 0 1 0 15 0 a7.5 7.5 0 1 0 -15 0zM676.64 126.82 a7.5 7.5 0 1 0 15 0 a7.5 7.5 0 1 0 -15 0zM676.64 201.82 a7.5 7.5 0 1 0 15 0 a7.5 7.5 0 1 0 -15 0zM611.68 239.32 a7.5 7.5 0 1 0 15 0 a7.5 7.5 0 1 0 -15 0zM546.73 201.82 a7.5 7.5 0 1 0 15 0 a7.5 7.5 0 1 0 -15 0zM611.68 764.32 a7.5 7.5 0 1 0 15 0 a7.5 7.5 0 1 0 -15 0zM676.64 801.82 a7.5 7.5 0 1 0 15 0 a7.5 7.5 0 1 0 -15 0zM676.64 876.82 a7.5 7.5 0 1 0 15 0 a7.5 7.5 0 1 0 -15 0zM611.68 914.32 a7.5 7.5 0 1 0 15 0 a7.5 7.5 0 1 0 -15 0zM546.73 876.82 a7.5 7.5 0 1 0 15 0 a7.5 7.5 0 1 0 -15 0zM546.73 801.82 a7.5 7.5 0 1 0 15 0 a7.5 7.5 0 1 0 -15 0zM611.68 989.32 a7.5 7.5 0 1 0 15 0 a7.5 7.5 0 1 0 -15 0zM676.64 -23.18 a7.5 7.5 0 1 0 15 0 a7.5 7.5 0 1 0 -15 0zM741.59 14.32 a7.5 7.5 0 1 0 15 0 a7.5 7.5 0 1 0 -15 0zM741.59 89.32 a7.5 7.5 0 1 0 15 0 a7.5 7.5 0 1 0 -15 0zM741.59 239.32 a7.5 7.5 0 1 0 15 0 a7.5 7.5 0 1 0 -15 0zM741.59 314.32 a7.5 7.5 0 1 0 15 0 a7.5 7.5 0 1 0 -15 0zM676.64 351.82 a7.5 7.5 0 1 0 15 0 a7.5 7.5 0 1 0 -15 0zM611.68 314.32 a7.5 7.5 0 1 0 15 0 a7.5 7.5 0 1 0 -15 0zM676.64 426.82 a7.5 7.5 0 1 0 15 0 a7.5 7.5 0 1 0 -15 0zM741.59 464.32 a7.5 7.5 0 1 0 15 0 a7.5 7.5 0 1 0 -15 0zM741.59 539.32 a7.5 7.5 0 1 0 15 0 a7.5 7.5 0 1 0 -15 0zM676.64 576.82 a7.5 7.5 0 1 0 15 0 a7.5 7.5 0 1 0 -15 0zM611.68 539.32 a7.5 7.5 0 1 0 15 0 a7.5 7.5 0 1 0 -15 0zM611.68 464.32 a7.5 7.5 0 1 0 15 0 a7.5 7.5 0 1 0 -15 0zM741.59 914.32 a7.5 7.5 0 1 0 15 0 a7.5 7.5 0 1 0 -15 0zM741.59 989.32 a7.5 7.5 0 1 0 15 0 a7.5 7.5 0 1 0 -15 0zM676.64 1026.82 a7.5 7.5 0 1 0 15 0 a7.5 7.5 0 1 0 -15 0zM806.54 -23.18 a7.5 7.5 0 1 0 15 0 a7.5 7.5 0 1 0 -15 0zM871.5 14.32 a7.5 7.5 0 1 0 15 0 a7.5 7.5 0 1 0 -15 0zM871.5 89.32 a7.5 7.5 0 1 0 15 0 a7.5 7.5 0 1 0 -15 0zM806.54 126.82 a7.5 7.5 0 1 0 15 0 a7.5 7.5 0 1 0 -15 0zM936.45 126.82 a7.5 7.5 0 1 0 15 0 a7.5 7.5 0 1 0 -15 0zM936.45 201.82 a7.5 7.5 0 1 0 15 0 a7.5 7.5 0 1 0 -15 0zM871.5 239.32 a7.5 7.5 0 1 0 15 0 a7.5 7.5 0 1 0 -15 0zM806.54 201.82 a7.5 7.5 0 1 0 15 0 a7.5 7.5 0 1 0 -15 0zM871.5 314.32 a7.5 7.5 0 1 0 15 0 a7.5 7.5 0 1 0 -15 0zM806.54 351.82 a7.5 7.5 0 1 0 15 0 a7.5 7.5 0 1 0 -15 0zM936.45 351.82 a7.5 7.5 0 1 0 15 0 a7.5 7.5 0 1 0 -15 0zM936.45 426.82 a7.5 7.5 0 1 0 15 0 a7.5 7.5 0 1 0 -15 0zM871.5 464.32 a7.5 7.5 0 1 0 15 0 a7.5 7.5 0 1 0 -15 0zM806.54 426.82 a7.5 7.5 0 1 0 15 0 a7.5 7.5 0 1 0 -15 0zM806.54 1101.82 a7.5 7.5 0 1 0 15 0 a7.5 7.5 0 1 0 -15 0zM871.5 1139.32 a7.5 7.5 0 1 0 15 0 a7.5 7.5 0 1 0 -15 0zM871.5 1214.32 a7.5 7.5 0 1 0 15 0 a7.5 7.5 0 1 0 -15 0zM806.54 1251.82 a7.5 7.5 0 1 0 15 0 a7.5 7.5 0 1 0 -15 0zM741.59 1214.32 a7.5 7.5 0 1 0 15 0 a7.5 7.5 0 1 0 -15 0zM741.59 1139.32 a7.5 7.5 0 1 0 15 0 a7.5 7.5 0 1 0 -15 0zM1001.41 89.32 a7.5 7.5 0 1 0 15 0 a7.5 7.5 0 1 0 -15 0zM1066.36 126.82 a7.5 7.5 0 1 0 15 0 a7.5 7.5 0 1 0 -15 0zM1066.36 201.82 a7.5 7.5 0 1 0 15 0 a7.5 7.5 0 1 0 -15 0zM1001.41 239.32 a7.5 7.5 0 1 0 15 0 a7.5 7.5 0 1 0 -15 0zM1001.41 314.32 a7.5 7.5 0 1 0 15 0 a7.5 7.5 0 1 0 -15 0zM1066.36 351.82 a7.5 7.5 0 1 0 15 0 a7.5 7.5 0 1 0 -15 0zM1066.36 426.82 a7.5 7.5 0 1 0 15 0 a7.5 7.5 0 1 0 -15 0zM1001.41 464.32 a7.5 7.5 0 1 0 15 0 a7.5 7.5 0 1 0 -15 0zM1001.41 764.32 a7.5 7.5 0 1 0 15 0 a7.5 7.5 0 1 0 -15 0zM1066.36 801.82 a7.5 7.5 0 1 0 15 0 a7.5 7.5 0 1 0 -15 0zM1066.36 876.82 a7.5 7.5 0 1 0 15 0 a7.5 7.5 0 1 0 -15 0zM1001.41 914.32 a7.5 7.5 0 1 0 15 0 a7.5 7.5 0 1 0 -15 0zM936.45 876.82 a7.5 7.5 0 1 0 15 0 a7.5 7.5 0 1 0 -15 0zM936.45 801.82 a7.5 7.5 0 1 0 15 0 a7.5 7.5 0 1 0 -15 0zM1001.41 989.32 a7.5 7.5 0 1 0 15 0 a7.5 7.5 0 1 0 -15 0zM936.45 1026.82 a7.5 7.5 0 1 0 15 0 a7.5 7.5 0 1 0 -15 0zM871.5 989.32 a7.5 7.5 0 1 0 15 0 a7.5 7.5 0 1 0 -15 0zM871.5 914.32 a7.5 7.5 0 1 0 15 0 a7.5 7.5 0 1 0 -15 0zM1066.36 1026.82 a7.5 7.5 0 1 0 15 0 a7.5 7.5 0 1 0 -15 0zM1066.36 1101.82 a7.5 7.5 0 1 0 15 0 a7.5 7.5 0 1 0 -15 0zM1001.41 1139.32 a7.5 7.5 0 1 0 15 0 a7.5 7.5 0 1 0 -15 0zM936.45 1101.82 a7.5 7.5 0 1 0 15 0 a7.5 7.5 0 1 0 -15 0zM1001.41 1214.32 a7.5 7.5 0 1 0 15 0 a7.5 7.5 0 1 0 -15 0zM936.45 1251.82 a7.5 7.5 0 1 0 15 0 a7.5 7.5 0 1 0 -15 0zM1131.31 89.32 a7.5 7.5 0 1 0 15 0 a7.5 7.5 0 1 0 -15 0zM1196.27 126.82 a7.5 7.5 0 1 0 15 0 a7.5 7.5 0 1 0 -15 0zM1196.27 201.82 a7.5 7.5 0 1 0 15 0 a7.5 7.5 0 1 0 -15 0zM1131.31 239.32 a7.5 7.5 0 1 0 15 0 a7.5 7.5 0 1 0 -15 0zM1131.31 314.32 a7.5 7.5 0 1 0 15 0 a7.5 7.5 0 1 0 -15 0zM1131.31 464.32 a7.5 7.5 0 1 0 15 0 a7.5 7.5 0 1 0 -15 0zM1131.31 539.32 a7.5 7.5 0 1 0 15 0 a7.5 7.5 0 1 0 -15 0zM1066.36 576.82 a7.5 7.5 0 1 0 15 0 a7.5 7.5 0 1 0 -15 0zM1001.41 539.32 a7.5 7.5 0 1 0 15 0 a7.5 7.5 0 1 0 -15 0zM1131.31 914.32 a7.5 7.5 0 1 0 15 0 a7.5 7.5 0 1 0 -15 0zM1131.31 989.32 a7.5 7.5 0 1 0 15 0 a7.5 7.5 0 1 0 -15 0zM1196.27 -23.18 a7.5 7.5 0 1 0 15 0 a7.5 7.5 0 1 0 -15 0zM1261.22 14.32 a7.5 7.5 0 1 0 15 0 a7.5 7.5 0 1 0 -15 0zM1261.22 89.32 a7.5 7.5 0 1 0 15 0 a7.5 7.5 0 1 0 -15 0zM1131.31 14.32 a7.5 7.5 0 1 0 15 0 a7.5 7.5 0 1 0 -15 0zM1261.22 239.32 a7.5 7.5 0 1 0 15 0 a7.5 7.5 0 1 0 -15 0zM1261.22 314.32 a7.5 7.5 0 1 0 15 0 a7.5 7.5 0 1 0 -15 0zM1196.27 351.82 a7.5 7.5 0 1 0 15 0 a7.5 7.5 0 1 0 -15 0zM1326.17 351.82 a7.5 7.5 0 1 0 15 0 a7.5 7.5 0 1 0 -15 0zM1326.17 426.82 a7.5 7.5 0 1 0 15 0 a7.5 7.5 0 1 0 -15 0zM1261.22 464.32 a7.5 7.5 0 1 0 15 0 a7.5 7.5 0 1 0 -15 0zM1196.27 426.82 a7.5 7.5 0 1 0 15 0 a7.5 7.5 0 1 0 -15 0zM1261.22 539.32 a7.5 7.5 0 1 0 15 0 a7.5 7.5 0 1 0 -15 0zM1196.27 576.82 a7.5 7.5 0 1 0 15 0 a7.5 7.5 0 1 0 -15 0zM1326.17 576.82 a7.5 7.5 0 1 0 15 0 a7.5 7.5 0 1 0 -15 0zM1326.17 651.82 a7.5 7.5 0 1 0 15 0 a7.5 7.5 0 1 0 -15 0zM1261.22 689.32 a7.5 7.5 0 1 0 15 0 a7.5 7.5 0 1 0 -15 0zM1196.27 651.82 a7.5 7.5 0 1 0 15 0 a7.5 7.5 0 1 0 -15 0zM1261.22 764.32 a7.5 7.5 0 1 0 15 0 a7.5 7.5 0 1 0 -15 0zM1196.27 801.82 a7.5 7.5 0 1 0 15 0 a7.5 7.5 0 1 0 -15 0zM1131.31 764.32 a7.5 7.5 0 1 0 15 0 a7.5 7.5 0 1 0 -15 0zM1131.31 689.32 a7.5 7.5 0 1 0 15 0 a7.5 7.5 0 1 0 -15 0zM1326.17 801.82 a7.5 7.5 0 1 0 15 0 a7.5 7.5 0 1 0 -15 0zM1326.17 876.82 a7.5 7.5 0 1 0 15 0 a7.5 7.5 0 1 0 -15 0zM1261.22 914.32 a7.5 7.5 0 1 0 15 0 a7.5 7.5 0 1 0 -15 0zM1196.27 876.82 a7.5 7.5 0 1 0 15 0 a7.5 7.5 0 1 0 -15 0zM1261.22 989.32 a7.5 7.5 0 1 0 15 0 a7.5 7.5 0 1 0 -15 0zM1196.27 1026.82 a7.5 7.5 0 1 0 15 0 a7.5 7.5 0 1 0 -15 0zM1326.17 1026.82 a7.5 7.5 0 1 0 15 0 a7.5 7.5 0 1 0 -15 0zM1326.17 1101.82 a7.5 7.5 0 1 0 15 0 a7.5 7.5 0 1 0 -15 0zM1261.22 1139.32 a7.5 7.5 0 1 0 15 0 a7.5 7.5 0 1 0 -15 0zM1196.27 1101.82 a7.5 7.5 0 1 0 15 0 a7.5 7.5 0 1 0 -15 0zM1326.17 -23.18 a7.5 7.5 0 1 0 15 0 a7.5 7.5 0 1 0 -15 0zM1391.13 14.32 a7.5 7.5 0 1 0 15 0 a7.5 7.5 0 1 0 -15 0zM1391.13 89.32 a7.5 7.5 0 1 0 15 0 a7.5 7.5 0 1 0 -15 0zM1326.17 126.82 a7.5 7.5 0 1 0 15 0 a7.5 7.5 0 1 0 -15 0zM1456.08 126.82 a7.5 7.5 0 1 0 15 0 a7.5 7.5 0 1 0 -15 0zM1456.08 201.82 a7.5 7.5 0 1 0 15 0 a7.5 7.5 0 1 0 -15 0zM1391.13 239.32 a7.5 7.5 0 1 0 15 0 a7.5 7.5 0 1 0 -15 0zM1326.17 201.82 a7.5 7.5 0 1 0 15 0 a7.5 7.5 0 1 0 -15 0zM1391.13 464.32 a7.5 7.5 0 1 0 15 0 a7.5 7.5 0 1 0 -15 0zM1391.13 539.32 a7.5 7.5 0 1 0 15 0 a7.5 7.5 0 1 0 -15 0zM1521.04 239.32 a7.5 7.5 0 1 0 15 0 a7.5 7.5 0 1 0 -15 0zM1521.04 314.32 a7.5 7.5 0 1 0 15 0 a7.5 7.5 0 1 0 -15 0zM1456.08 351.82 a7.5 7.5 0 1 0 15 0 a7.5 7.5 0 1 0 -15 0zM1391.13 314.32 a7.5 7.5 0 1 0 15 0 a7.5 7.5 0 1 0 -15 0zM1585.99 351.82 a7.5 7.5 0 1 0 15 0 a7.5 7.5 0 1 0 -15 0zM1585.99 426.82 a7.5 7.5 0 1 0 15 0 a7.5 7.5 0 1 0 -15 0zM1521.04 464.32 a7.5 7.5 0 1 0 15 0 a7.5 7.5 0 1 0 -15 0zM1456.08 426.82 a7.5 7.5 0 1 0 15 0 a7.5 7.5 0 1 0 -15 0zM1521.04 539.32 a7.5 7.5 0 1 0 15 0 a7.5 7.5 0 1 0 -15 0zM1585.99 576.82 a7.5 7.5 0 1 0 15 0 a7.5 7.5 0 1 0 -15 0zM1585.99 651.82 a7.5 7.5 0 1 0 15 0 a7.5 7.5 0 1 0 -15 0zM1521.04 689.32 a7.5 7.5 0 1 0 15 0 a7.5 7.5 0 1 0 -15 0zM1456.08 651.82 a7.5 7.5 0 1 0 15 0 a7.5 7.5 0 1 0 -15 0zM1456.08 576.82 a7.5 7.5 0 1 0 15 0 a7.5 7.5 0 1 0 -15 0zM1521.04 764.32 a7.5 7.5 0 1 0 15 0 a7.5 7.5 0 1 0 -15 0zM1585.99 801.82 a7.5 7.5 0 1 0 15 0 a7.5 7.5 0 1 0 -15 0zM1585.99 876.82 a7.5 7.5 0 1 0 15 0 a7.5 7.5 0 1 0 -15 0zM1521.04 914.32 a7.5 7.5 0 1 0 15 0 a7.5 7.5 0 1 0 -15 0zM1456.08 876.82 a7.5 7.5 0 1 0 15 0 a7.5 7.5 0 1 0 -15 0zM1456.08 801.82 a7.5 7.5 0 1 0 15 0 a7.5 7.5 0 1 0 -15 0zM1521.04 989.32 a7.5 7.5 0 1 0 15 0 a7.5 7.5 0 1 0 -15 0zM1585.99 1026.82 a7.5 7.5 0 1 0 15 0 a7.5 7.5 0 1 0 -15 0zM1585.99 1101.82 a7.5 7.5 0 1 0 15 0 a7.5 7.5 0 1 0 -15 0zM1521.04 1139.32 a7.5 7.5 0 1 0 15 0 a7.5 7.5 0 1 0 -15 0zM1456.08 1101.82 a7.5 7.5 0 1 0 15 0 a7.5 7.5 0 1 0 -15 0zM1456.08 1026.82 a7.5 7.5 0 1 0 15 0 a7.5 7.5 0 1 0 -15 0zM1650.94 314.32 a7.5 7.5 0 1 0 15 0 a7.5 7.5 0 1 0 -15 0zM1715.9 351.82 a7.5 7.5 0 1 0 15 0 a7.5 7.5 0 1 0 -15 0zM1715.9 426.82 a7.5 7.5 0 1 0 15 0 a7.5 7.5 0 1 0 -15 0zM1650.94 464.32 a7.5 7.5 0 1 0 15 0 a7.5 7.5 0 1 0 -15 0zM1650.94 539.32 a7.5 7.5 0 1 0 15 0 a7.5 7.5 0 1 0 -15 0zM1650.94 689.32 a7.5 7.5 0 1 0 15 0 a7.5 7.5 0 1 0 -15 0zM1650.94 764.32 a7.5 7.5 0 1 0 15 0 a7.5 7.5 0 1 0 -15 0zM1650.94 1139.32 a7.5 7.5 0 1 0 15 0 a7.5 7.5 0 1 0 -15 0zM1650.94 1214.32 a7.5 7.5 0 1 0 15 0 a7.5 7.5 0 1 0 -15 0zM1585.99 1251.82 a7.5 7.5 0 1 0 15 0 a7.5 7.5 0 1 0 -15 0zM1521.04 1214.32 a7.5 7.5 0 1 0 15 0 a7.5 7.5 0 1 0 -15 0zM1715.9 201.82 a7.5 7.5 0 1 0 15 0 a7.5 7.5 0 1 0 -15 0zM1780.85 239.32 a7.5 7.5 0 1 0 15 0 a7.5 7.5 0 1 0 -15 0zM1780.85 314.32 a7.5 7.5 0 1 0 15 0 a7.5 7.5 0 1 0 -15 0zM1650.94 239.32 a7.5 7.5 0 1 0 15 0 a7.5 7.5 0 1 0 -15 0zM1845.8 351.82 a7.5 7.5 0 1 0 15 0 a7.5 7.5 0 1 0 -15 0zM1845.8 426.82 a7.5 7.5 0 1 0 15 0 a7.5 7.5 0 1 0 -15 0zM1780.85 464.32 a7.5 7.5 0 1 0 15 0 a7.5 7.5 0 1 0 -15 0zM1780.85 539.32 a7.5 7.5 0 1 0 15 0 a7.5 7.5 0 1 0 -15 0zM1715.9 576.82 a7.5 7.5 0 1 0 15 0 a7.5 7.5 0 1 0 -15 0zM1845.8 576.82 a7.5 7.5 0 1 0 15 0 a7.5 7.5 0 1 0 -15 0zM1845.8 651.82 a7.5 7.5 0 1 0 15 0 a7.5 7.5 0 1 0 -15 0zM1780.85 689.32 a7.5 7.5 0 1 0 15 0 a7.5 7.5 0 1 0 -15 0zM1715.9 651.82 a7.5 7.5 0 1 0 15 0 a7.5 7.5 0 1 0 -15 0zM1780.85 764.32 a7.5 7.5 0 1 0 15 0 a7.5 7.5 0 1 0 -15 0zM1845.8 801.82 a7.5 7.5 0 1 0 15 0 a7.5 7.5 0 1 0 -15 0zM1845.8 876.82 a7.5 7.5 0 1 0 15 0 a7.5 7.5 0 1 0 -15 0zM1780.85 914.32 a7.5 7.5 0 1 0 15 0 a7.5 7.5 0 1 0 -15 0zM1715.9 876.82 a7.5 7.5 0 1 0 15 0 a7.5 7.5 0 1 0 -15 0zM1715.9 801.82 a7.5 7.5 0 1 0 15 0 a7.5 7.5 0 1 0 -15 0zM1780.85 989.32 a7.5 7.5 0 1 0 15 0 a7.5 7.5 0 1 0 -15 0zM1715.9 1026.82 a7.5 7.5 0 1 0 15 0 a7.5 7.5 0 1 0 -15 0zM1650.94 989.32 a7.5 7.5 0 1 0 15 0 a7.5 7.5 0 1 0 -15 0zM1650.94 914.32 a7.5 7.5 0 1 0 15 0 a7.5 7.5 0 1 0 -15 0zM1845.8 201.82 a7.5 7.5 0 1 0 15 0 a7.5 7.5 0 1 0 -15 0zM1910.76 239.32 a7.5 7.5 0 1 0 15 0 a7.5 7.5 0 1 0 -15 0zM1910.76 314.32 a7.5 7.5 0 1 0 15 0 a7.5 7.5 0 1 0 -15 0zM1975.71 351.82 a7.5 7.5 0 1 0 15 0 a7.5 7.5 0 1 0 -15 0zM1975.71 426.82 a7.5 7.5 0 1 0 15 0 a7.5 7.5 0 1 0 -15 0zM1910.76 464.32 a7.5 7.5 0 1 0 15 0 a7.5 7.5 0 1 0 -15 0zM1910.76 539.32 a7.5 7.5 0 1 0 15 0 a7.5 7.5 0 1 0 -15 0zM1975.71 576.82 a7.5 7.5 0 1 0 15 0 a7.5 7.5 0 1 0 -15 0zM1975.71 651.82 a7.5 7.5 0 1 0 15 0 a7.5 7.5 0 1 0 -15 0zM1910.76 689.32 a7.5 7.5 0 1 0 15 0 a7.5 7.5 0 1 0 -15 0zM1910.76 914.32 a7.5 7.5 0 1 0 15 0 a7.5 7.5 0 1 0 -15 0zM1910.76 989.32 a7.5 7.5 0 1 0 15 0 a7.5 7.5 0 1 0 -15 0zM1845.8 1026.82 a7.5 7.5 0 1 0 15 0 a7.5 7.5 0 1 0 -15 0zM1975.71 1026.82 a7.5 7.5 0 1 0 15 0 a7.5 7.5 0 1 0 -15 0zM1975.71 1101.82 a7.5 7.5 0 1 0 15 0 a7.5 7.5 0 1 0 -15 0zM1910.76 1139.32 a7.5 7.5 0 1 0 15 0 a7.5 7.5 0 1 0 -15 0zM1845.8 1101.82 a7.5 7.5 0 1 0 15 0 a7.5 7.5 0 1 0 -15 0z"
              fill="#03305d"></path>
        <path d="M121.6 137.75L218.6 193.75L218.6 305.75L121.6 361.75L24.6 305.75L24.6 193.75zM24.6 641.75L121.6 697.75L121.6 809.75L24.6 865.75L-72.4 809.75L-72.4 697.75zM121.6 809.75L218.6 865.75L218.6 977.75L121.6 1033.75L24.6 977.75L24.6 865.75zM24.6 977.75L121.6 1033.75L121.6 1145.75L24.6 1201.75L-72.4 1145.75L-72.4 1033.75zM218.6 -30.25L315.59 25.75L315.59 137.75L218.6 193.75L121.6 137.75L121.6 25.75zM412.59 305.75L509.59 361.75L509.59 473.75L412.59 529.75L315.59 473.75L315.59 361.75zM606.59 641.75L703.58 697.75L703.58 809.75L606.59 865.75L509.59 809.75L509.59 697.75zM606.59 977.75L703.58 1033.75L703.58 1145.75L606.59 1201.75L509.59 1145.75L509.59 1033.75zM897.58 137.75L994.58 193.75L994.58 305.75L897.58 361.75L800.58 305.75L800.58 193.75zM800.58 305.75L897.58 361.75L897.58 473.75L800.58 529.75L703.58 473.75L703.58 361.75zM994.58 305.75L1091.57 361.75L1091.57 473.75L994.58 529.75L897.58 473.75L897.58 361.75zM1091.57 809.75L1188.57 865.75L1188.57 977.75L1091.57 1033.75L994.58 977.75L994.58 865.75zM1285.57 137.75L1382.57 193.75L1382.57 305.75L1285.57 361.75L1188.57 305.75L1188.57 193.75zM1188.57 641.75L1285.57 697.75L1285.57 809.75L1188.57 865.75L1091.57 809.75L1091.57 697.75zM1285.57 809.75L1382.57 865.75L1382.57 977.75L1285.57 1033.75L1188.57 977.75L1188.57 865.75zM1479.56 809.75L1576.56 865.75L1576.56 977.75L1479.56 1033.75L1382.57 977.75L1382.57 865.75zM1673.56 809.75L1770.56 865.75L1770.56 977.75L1673.56 1033.75L1576.56 977.75L1576.56 865.75zM1770.56 -30.25L1867.55 25.75L1867.55 137.75L1770.56 193.75L1673.56 137.75L1673.56 25.75zM1867.55 473.75L1964.55 529.75L1964.55 641.75L1867.55 697.75L1770.56 641.75L1770.56 529.75z"
              stroke="rgba(3, 72, 143, 0.93)" stroke-width="2"></path>
    </g>
    <defs>
        <mask id="SvgjsMask1084">
            <rect width="1920" height="1080" fill="#ffffff"></rect>
        </mask>
    </defs>
</svg>
