<svg xmlns="http://www.w3.org/2000/svg" id="Layer_1" x="0" y="0" version="1.1" viewBox="0 0 239 60"
     xml:space="preserve"><defs/>
    <style>.st0{fill:#0a2848}</style>
    <path d="M9.7 20.5c.1 2 .3 2.4 1.3 2.8.6.3 3.1.4 5.8.4 10 0 11.2-.3 11.2-2.6 0-1.1-.6-2-1.4-2.3-.9-.3-.9-.3-5.4-.3h-7.8c-5.2 0-7.4-.3-9.2-1.2-2-1.1-3-3.3-3-7.2 0-5.1 1.4-7.3 5.5-8.2 2.2-.7 5.6-.9 11.8-.9 10 0 12.2.3 14.3 1.6 2 1.3 2.6 3.1 2.6 7.3H27c0-2.5-.9-2.8-6.4-2.8-2.8 0-6.5.1-7.8.2-2.4.1-3.2.7-3.2 2.3 0 1.2.6 2 1.8 2.3.5.1.7.2 3.5.2h8c.8 0 4.6.1 6 .2 5.4.3 7.5 2.6 7.5 8.3 0 5.2-1.5 7.5-5.7 8.4-2.1.5-6.3.7-12.5.7-9.8 0-12-.2-14.5-1.5-1.7-.9-2.6-3-2.6-6.4v-1.4h8.6zM72.3 1.2v6.4H49.4v4.9H71v5.6H49.4v5h23.2v6.4H40.9V1.2h31.4zM112.4 18.9c0 4.1-.2 5.5-.8 6.8-1.1 2.4-3.4 3.6-7.8 3.9-1.7.2-5.1.2-10.8.2-8.2 0-10.8-.4-13.1-1.9-2.8-1.8-3.6-4.8-3.6-13.2 0-7.5.9-10.2 3.8-11.9C82.7 1.4 85.4 1 93.4 1c10.6 0 12.9.2 15.3 1.4 2.3 1.1 3.4 3.7 3.4 7.8v.9h-8.2c-.2-3.1-.8-3.4-8.3-3.4-7.1 0-8.3.2-9.4 1.1-1 .9-1.2 2.1-1.2 6.7 0 6.8.6 7.3 8.9 7.3 6.4 0 7.4 0 8.5-.6 1.2-.5 1.7-1.4 1.7-3.4h8.3zM125.4 1.2v14c0 3.1 0 3.2.1 4 .4 3.2 1.8 3.8 8.3 3.8 6.5 0 8.2-.2 9.3-1 .9-.6 1.3-1.9 1.3-4V1.2h8.6v14.9c.1 7-.5 9.1-3 11.4-2 1.6-4.6 2.3-8.3 2.3h-7c-8 0-9.6-.1-11.7-.7-5.1-1.6-6.5-4.3-6.4-12.7V1.2h8.8zM158.2 1.2h24.5c5 0 7.2.4 8.8 1.8 1.7 1.3 2.4 3.7 2.4 7.6 0 5.3-1.3 7.4-4.9 8.2 3.5.6 4.6 2.1 4.5 6.4v4.5h-8.8V26c0-3.1-.9-3.7-4.8-3.6h-13.2v7.1h-8.6V1.2zm22.1 14.3c4.2 0 5-.5 5-3.3 0-1.8-.2-2.6-.7-3.2-.6-.7-1.4-.8-4-.8h-13.8v7.3h13.5zM230.2 1.2v6.4h-22.9v4.9h21.6v5.6h-21.6v5h23.2v6.4h-31.7V1.2h31.4zM21.3 40.9v4H6.9V48h13.6v3.5H6.9v3.2h14.6v4H1.6V40.9h19.7zM24.8 40.9h8.6l10.8 13.6-.1-13.6h5.1v17.8h-8.7L29.9 45.3l.1 13.4h-5.2V40.9zM72.9 40.9v4H58.5V48h13.6v3.5H58.5v3.2h14.6v4h-20V40.9h19.8zM76.4 40.9h15.4c3.2 0 4.5.3 5.6 1.1 1 .8 1.5 2.4 1.5 4.8 0 3.3-.8 4.6-3.1 5.1 2.2.4 2.9 1.3 2.8 4v2.8h-5.5v-2.2c0-1.9-.6-2.3-3-2.3h-8.3v4.5h-5.4V40.9zm13.9 9c2.6 0 3.1-.3 3.1-2.1 0-1.1-.1-1.6-.5-2-.4-.4-.9-.5-2.5-.5h-8.7v4.6h8.6zM120 46.9c0-1.4-.6-1.9-2.2-2h-5.3c-2.6 0-2.6 0-3.2.2-1 .2-1.4.7-1.6 1.9-.1.5-.1 2.1-.1 3.3 0 2.4.2 3.4 1 3.9.6.4 1.4.6 2.8.6h3.9c3.6 0 4.2-.2 4.7-1.3.1-.2.1-.5.1-1V52h-6.9v-3.3h12.2v2.5c0 2.9-.1 4-.5 4.9-.6 1.7-1.9 2.5-4.1 2.7-.6.1-2.2.1-7.5.1-4.1 0-5.7-.1-6.8-.3-2-.4-3.1-1.3-3.7-2.7-.5-1.2-.7-2.5-.7-5.8 0-3.8.2-5.3.9-6.6.8-1.4 2.1-2.1 4.4-2.4 1.2-.2 3.4-.2 6.8-.2 4.9 0 6.4.1 7.5.3 2.8.7 3.6 2.1 3.6 5.8H120zM136.8 52.6l-10.2-11.7h6.9l6 7.4 6-7.4h6.8l-10.1 11.7v6.2h-5.5v-6.2z"
          class="st0"/></svg>
